<svg xmlns="http://www.w3.org/2000/svg" viewBox="0 0 45 50"><title>logo</title><path d="M21.08,19.72l-.85,2.77H23a23.79,23.79,0,0,1,.85-2.77H21.08Z" style="fill:#fff"/><path d="M40.43,35c1.93-2.34,4.48-5.3,4.48-13.57C44.9,9.53,34.9,0,22.36,0,10,0,0,9.53,0,21.41,0,42.58,25.75,50,32.36,50h1.27c2.12,0,3.63,0,5.33-1.08,2.12-1.27,1.27-3.8.66-5.5a9.73,9.73,0,0,1-1.08-4.88A6.63,6.63,0,0,1,40.43,35ZM33,16.33l-.66,2.11c-.42,1.27-.66,1.27-2.78,1.27H28.26l-.66,2.54h2.78c.23,0,.42.23.42.65v.23l-.66,2.11c-.42,1.27-.66,1.27-2.78,1.27h-1.2l-.42,1.27c-1.08,3.61-.85,4-2.36,4H21.27a.7.7,0,0,1-.66-.65,17.47,17.47,0,0,1,1.08-4.23l.23-.23H19.15c-1.51,4.65-1.08,5.07-2.78,5.07H14a.7.7,0,0,1-.66-.65,17.62,17.62,0,0,1,1.27-4.46H12.09c-.23,0-.42-.23-.42-.65a3.31,3.31,0,0,1,.23-1.27c.42-1.5.66-2.11,1.51-2.11h2.36a15.16,15.16,0,0,1,.85-2.77,4.88,4.88,0,0,1-2.12-.23h-.42c-.23,0-.42-.23-.42-.65a3.31,3.31,0,0,1,.23-1.27c.42-1.5.66-2.11,1.51-2.11h2.55a36.56,36.56,0,0,0,1.27-3.8C19.42,11,20,11,21.54,11c1.27,0,1.7.23,1.7.65V12c0,.19-.66,2.54-.85,3.38h3l1.08-3.61c.23-.85.85-.85,2.36-.85,1.27,0,1.7.23,1.7.65V12c0,.19-.66,2.54-.85,3.38,1.51,0,2.78,0,3,.23.15-.15.35,0,.35.69Z" style="fill:#fff"/></svg>